<?xml version="1.0" encoding="UTF-8"?><svg id="Mediaferry_logo_white" xmlns="http://www.w3.org/2000/svg" viewBox="0 0 500 130.07"><defs><style>.cls-1{fill:#f58220;}</style></defs><circle class="cls-1" cx="62.9" cy="65.03" r="62.9"/><path d="M83.23,96.62l-.08-41.78-17.58,32.17h-5.27l-17.56-31.63v41.24h-11.2v-63.02h9.86l21.5,40.23,21.68-40.23h9.78l.08,63.02h-11.2,0Z"/><path d="M135.9,82.12c-2.53,3.05-6.22,4.96-10.31,4.96-6.6,0-12.12-4.98-13.52-11.66h37.43c.15-1.09.22-2.2.22-3.33,0-13.54-10.81-24.52-24.13-24.52s-24.13,10.98-24.13,24.52,10.81,24.52,24.13,24.52c6.92,0,13.16-2.96,17.56-7.7l-7.26-6.79ZM112.27,67.96c1.66-6.27,7-10.85,13.32-10.85s11.66,4.58,13.32,10.85h-26.65,0Z"/><path d="M207.73,33.45v63.2h-10.76v-6.85c-3.77,4.57-9.33,6.82-15.87,6.82-13.9,0-24.21-9.68-24.21-24.56s10.31-24.47,24.21-24.47c6.19,0,11.65,2.06,15.42,6.45v-20.58h11.21ZM196.71,72.05c0-9.14-6.19-14.97-14.25-14.97s-14.25,5.83-14.25,14.97,6.19,14.97,14.25,14.97,14.25-5.83,14.25-14.97Z"/><path d="M215.62,39.24c0-3.24,2.62-5.79,6.17-5.79s6.17,2.39,6.17,5.55c0,3.39-2.54,6.02-6.17,6.02s-6.17-2.54-6.17-5.79ZM216.14,47.58h11.2v49.06h-11.2v-49.06Z"/><path d="M279.13,67.93v28.71h-10.58v-6.48c-2.69,4.13-7.89,6.45-15.06,6.45-10.94,0-17.84-6.01-17.84-14.34s5.38-14.25,19.9-14.25h12.37v-.72c0-6.54-3.94-10.4-11.92-10.4-5.38,0-10.94,1.79-14.52,4.75l-4.39-8.16c5.11-3.94,12.55-5.92,20.26-5.92,13.8,0,21.78,6.54,21.78,20.35h0ZM267.92,81.02v-5.56h-11.57c-7.62,0-9.68,2.87-9.68,6.37,0,4.03,3.41,6.63,9.14,6.63s10.22-2.51,12.1-7.44Z"/><path d="M305.87,50.31v2.87h13.18v8.97h-12.82v34.49h-11.2v-34.49h-7.89v-8.97h7.89v-3.05c0-10.04,6.01-16.59,17.12-16.59,3.85,0,7.62.81,10.13,2.6l-3.14,8.43c-1.7-1.17-3.85-1.97-6.19-1.97-4.66,0-7.08,2.6-7.08,7.71h0Z"/><path d="M357.24,82.12c-2.53,3.05-6.22,4.96-10.31,4.96-6.6,0-12.12-4.98-13.52-11.66h37.43c.15-1.09.22-2.2.22-3.33,0-13.54-10.81-24.52-24.13-24.52s-24.13,10.98-24.13,24.52,10.81,24.52,24.13,24.52c6.92,0,13.16-2.96,17.56-7.7l-7.26-6.79ZM333.61,67.96c1.66-6.27,7-10.85,13.32-10.85s11.66,4.58,13.32,10.85h-26.65Z"/><path d="M406.88,47.55v10.67c-.99-.18-1.79-.27-2.6-.27-8.52,0-13.9,5.02-13.9,14.79v23.9h-11.2v-49.06h10.67v7.5c3.23-5.02,9.05-7.53,17.04-7.53h0Z"/><path d="M444.13,47.55v10.67c-.99-.18-1.79-.27-2.6-.27-8.52,0-13.9,5.02-13.9,14.79v23.9h-11.2v-49.06h10.67v7.5c3.23-5.02,9.05-7.53,17.04-7.53h0Z"/><path d="M500,47.58l-22.41,50.52c-4.39,10.85-10.49,14.17-18.47,14.17-4.75,0-9.77-1.62-12.82-4.39l4.48-8.25c2.15,2.06,5.2,3.32,8.25,3.32,3.94,0,6.28-1.88,8.43-6.63l.81-1.88-20.89-46.85h11.65l15.06,34.21,15.15-34.21h10.76Z"/></svg>